HIERARCHY
ROOT Hips
{
  OFFSET -32.5998 29.0326 120.673
  CHANNELS 6 Xposition Yposition Zposition Zrotation Xrotation Yrotation
  JOINT LeftUpLeg
  {
    OFFSET 8.64259 1.95398 -2.38835
    CHANNELS 3 Zrotation Xrotation Yrotation
    JOINT LeftLeg
    {
      OFFSET 43.7702 0 0
      CHANNELS 3 Zrotation Xrotation Yrotation
      JOINT LeftFoot
      {
        OFFSET 40.6238 0 0
        CHANNELS 3 Zrotation Xrotation Yrotation
        JOINT LeftToeBase
        {
          OFFSET 12.7242 0 0
          CHANNELS 3 Zrotation Xrotation Yrotation
          End Site
          {
            OFFSET 0 0 0
          }
        }
      }
    }
  }
  JOINT RightUpLeg
  {
    OFFSET -8.2249 1.95398 -2.59336
    CHANNELS 3 Zrotation Xrotation Yrotation
    JOINT RightLeg
    {
      OFFSET 43.5653 0 0
      CHANNELS 3 Zrotation Xrotation Yrotation
      JOINT RightFoot
      {
        OFFSET 40.6238 0 0
        CHANNELS 3 Zrotation Xrotation Yrotation
        JOINT RightToeBase
        {
          OFFSET 12.7242 0 0
          CHANNELS 3 Zrotation Xrotation Yrotation
          End Site
          {
            OFFSET 0 0 0
          }
        }
      }
    }
  }
  JOINT Spine
  {
    OFFSET 0.165834 0.87714 6.61349
    CHANNELS 3 Zrotation Xrotation Yrotation
    JOINT Spine1
    {
      OFFSET 7.38963 1.71661e-005 0
      CHANNELS 3 Zrotation Xrotation Yrotation
      JOINT Spine2
      {
        OFFSET 11.9445 1.14441e-005 0
        CHANNELS 3 Zrotation Xrotation Yrotation
        JOINT Spine3
        {
          OFFSET 14.7254 4.19617e-005 0
          CHANNELS 3 Zrotation Xrotation Yrotation
          JOINT Spine4
          {
            OFFSET 10.9679 0 0
            CHANNELS 3 Zrotation Xrotation Yrotation
            JOINT RightShoulder
            {
              OFFSET 2.46616 -1.6653 3.69651
              CHANNELS 3 Zrotation Xrotation Yrotation
              JOINT RightArm
              {
                OFFSET 13.0012 0 0
                CHANNELS 3 Zrotation Xrotation Yrotation
                JOINT RightForeArm
                {
                  OFFSET 28.7848 1.62311e-005 0
                  CHANNELS 3 Zrotation Xrotation Yrotation
                  JOINT RightHand
                  {
                    OFFSET 26.5688 1.62095e-005 0
                    CHANNELS 3 Zrotation Xrotation Yrotation
                    End Site
                    {
                      OFFSET 0 0 0
                    }
                  }
                }
              }
            }
            JOINT LeftShoulder
            {
              OFFSET 2.38034 -1.29275 -3.7523
              CHANNELS 3 Zrotation Xrotation Yrotation
              JOINT LeftArm
              {
                OFFSET 16.3182 6.07031e-005 0
                CHANNELS 3 Zrotation Xrotation Yrotation
                JOINT LeftForeArm
                {
                  OFFSET 27.0901 0 0
                  CHANNELS 3 Zrotation Xrotation Yrotation
                  JOINT LeftHand
                  {
                    OFFSET 24.5451 1.51738e-005 0
                    CHANNELS 3 Zrotation Xrotation Yrotation
                    End Site
                    {
                      OFFSET 0 0 0
                    }
                  }
                }
              }
            }
            JOINT Neck
            {
              OFFSET 5.0226 -0.0266342 0
              CHANNELS 3 Zrotation Xrotation Yrotation
              JOINT Head
              {
                OFFSET 6.69364 2.86102e-005 0
                CHANNELS 3 Zrotation Xrotation Yrotation
                End Site
                {
                  OFFSET 0 0 0
                }
              }
            }
          }
        }
      }
    }
  }
}
MOTION
Frames:	15
Frame Time:	0.0416667
-268.569 99.4649 -250.955 -100.481 -57.0991 -98.7626 -173.559 -5.40069 90.8247 -14.4024 8.33124 1.13561 70.5828 5.81434 -1.12727 28.3791 1.36942 -3.79267 172.186 -4.64079 88.5594 -13.3709 -12.672 -0.46527 67.9836 -5.374 -0.196372 23.706 0.425502 6.39264 0.38058 7.86009 -90.4395 11.1552 0.553357 -0.928725 -0.515982 0.511962 -0.952196 -23.0503 0.806897 -0.719495 -3.03768 0.806899 -0.719504 91.3535 -27.534 -104.947 43.4469 -14.5162 -4.11265 -11.724 -6.9266 -25.3145 -9.45938 0.375716 -10.3028 -87.8102 -49.6429 81.9452 -25.8328 19.7196 -8.41895 10.4614 -1.98808 -17.8196 -0.361343 -0.105476 -5.22193 1.70189 11.3479 0.469211 -10.4518 10.9871 2.94172 
-268.715 99.3081 -251.004 -99.2285 -57.137 -97.5904 -173.096 -3.44301 91.2375 -16.5234 8.58757 0.644646 71.5139 6.43157 -1.23581 28.9624 1.56395 -3.74598 172.463 -3.58886 88.8811 -14.1506 -12.5048 -0.461802 68.1342 -5.55315 -0.387931 24.338 0.172825 6.41107 0.384535 7.8146 -90.5095 11.2461 0.528255 -1.06651 -0.425229 0.48081 -1.08872 -22.9588 0.824353 -0.858454 -2.94612 0.824355 -0.858462 91.3914 -27.3022 -104.955 42.9724 -14.2 -4.57403 -12.048 -7.42387 -25.2692 -10.436 0.313177 -9.05661 -88.2063 -50.7662 81.5549 -24.6512 19.318 -8.93771 11.4295 -0.221479 -19.2324 0.790678 -0.057955 -3.13981 1.86759 11.4476 1.14648 -10.2223 10.9861 2.89014 
-268.672 99.107 -250.61 -98.8191 -57.1146 -97.4013 -173.404 -2.89392 90.7287 -17.7245 8.09988 0.713599 72.0287 7.03638 -0.894542 30.2764 1.82294 -3.17759 172.39 -2.64126 88.6236 -15.9589 -12.4797 -0.574422 68.8493 -5.82823 -0.117497 25.0953 -0.0582719 6.17864 0.362398 7.82712 -90.5124 11.2207 0.483011 -1.06743 -0.450575 0.435561 -1.08765 -22.9839 0.78146 -0.872942 -2.97125 0.781485 -0.872938 91.5093 -27.1568 -104.765 42.8228 -14.2432 -4.9274 -12.1627 -7.45204 -25.6784 -11.0732 0.224629 -7.85541 -88.0975 -50.491 81.6667 -24.8281 18.9399 -9.10526 12.2177 0.732455 -20.7164 0.399993 -0.0667994 -3.39463 2.44216 11.4383 1.07023 -10.7071 10.9615 2.95627 
-268.234 98.6921 -250.26 -98.1575 -57.944 -97.1561 -173.559 -1.50833 90.5279 -20.2307 7.97601 0.339021 73.4586 8.45947 -1.01295 31.0481 2.10649 -3.18087 171.637 -0.717544 87.6099 -19.1348 -12.9868 -0.179152 70.3746 -6.44649 -0.492789 25.1342 0.0297319 5.80221 0.351502 7.88241 -90.5979 11.1097 0.422156 -1.23081 -0.561754 0.367581 -1.24821 -23.0938 0.772536 -1.04707 -3.0812 0.772536 -1.04707 92.4721 -26.0287 -103.137 43.3362 -13.8391 -5.45602 -13.1529 -8.73428 -26.8201 -10.5087 0.0493239 -5.95216 -88.8009 -50.7985 80.6773 -24.4521 19.5631 -10.6147 12.4132 1.14374 -20.9548 -0.040877 -0.0686046 -3.22988 3.41308 11.0595 1.60143 -10.6542 10.4691 3.04611 
-267.54 98.0939 -250.173 -98.0538 -58.3735 -96.2658 -172.605 2.60131 90.9665 -26.9655 9.79706 -0.332418 74.4471 9.69359 1.35233 32.008 2.46561 -3.20971 171.558 1.05552 87.9867 -22.2964 -12.3273 0.192177 71.3564 -6.75818 -0.285054 26.3627 -0.493003 5.94865 0.331753 7.94973 -90.8164 10.9736 0.282437 -1.65111 -0.698336 0.209535 -1.66195 -23.2266 0.765561 -1.48995 -3.21393 0.765581 -1.48996 92.5465 -25.382 -103.211 42.8445 -12.7552 -4.96198 -14.5847 -10.2552 -28.3541 -9.76993 -0.0109647 -5.29683 -89.0758 -51.328 80.372 -24.3061 19.3164 -10.8971 12.2991 0.491994 -21.978 2.59532 -0.0073773 -2.4531 3.9493 10.8319 2.11629 -10.2117 10.1318 3.37756 
-266.474 97.5475 -250.08 -96.3155 -58.0049 -94.4076 -171.103 8.0054 91.078 -34.6285 6.68699 -1.65232 74.504 8.88727 0.329899 31.0638 2.36401 -3.86644 171.241 4.17455 87.5739 -25.7079 -13.933 0.484496 71.6005 -6.96649 -0.368947 27.8891 -0.938314 5.33948 0.337342 7.98295 -90.924 10.9066 0.244342 -1.86107 -0.765695 0.162213 -1.87003 -23.2918 0.792305 -1.70168 -3.2791 0.792299 -1.70169 92.8754 -24.9811 -102.641 42.4439 -13.0487 -5.19886 -14.0049 -7.89901 -29.8702 -10.4918 0.121107 -6.82599 -88.9158 -51.1497 80.5741 -24.2572 19.5534 -10.5888 14.6771 3.94457 -24.932 0.637544 -0.0481453 -2.73052 5.58134 10.9541 1.54814 -10.6845 10.2539 4.0209 
-265.2 96.8059 -249.857 -94.6748 -57.5802 -92.9561 -168.69 13.5386 91.2892 -42.1198 2.92695 -3.5254 74.6088 8.458 0.885548 31.7498 2.04862 -2.28938 170.007 7.67742 86.3538 -29.6431 -15.9852 1.21434 72.5775 -7.826 -0.469557 28.6959 -1.22132 5.17059 0.28857 8.0614 -91.069 10.7469 0.0817746 -2.13312 -0.925831 -0.012172 -2.13466 -23.4482 0.718958 -2.01002 -3.43553 0.718956 -2.01003 93.1062 -24.5473 -102.287 41.102 -12.1166 -5.52257 -15.052 -8.37366 -31.6273 -10.3132 0.0202252 -5.66176 -89.4445 -51.1107 79.7846 -24.7635 18.8983 -9.86467 16.4955 5.97829 -27.0849 1.23511 -0.00396749 -1.68961 7.98451 11.2543 1.78023 -12.0674 10.3981 3.96585 
-263.755 95.7588 -249.439 -94.3357 -57.132 -93.0534 -166.062 18.4646 91.7327 -49.6067 0.745051 -4.82708 74.8349 8.05863 0.750838 30.9057 0.859099 -0.0156382 169.223 10.9518 84.832 -34.6764 -17.865 1.16647 73.9269 -8.89991 -0.898854 30.3142 -1.72426 4.58199 0.0847879 8.26284 -91.1109 10.3397 -0.339416 -2.17733 -1.333 -0.434918 -2.1603 -23.8536 0.330479 -2.17871 -3.84099 0.330476 -2.17871 93.3471 -24.416 -101.805 39.8972 -10.3295 -6.34111 -17.0698 -9.6652 -34.3022 -10.0758 -0.067572 -4.61002 -89.1459 -49.49 79.9034 -25.8476 20.1986 -9.296 17.689 6.85523 -29.2344 2.31565 0.0628946 -0.610568 10.3482 12.077 1.77925 -12.8061 11.0563 4.70899 
-262.191 94.554 -248.948 -93.0499 -56.7134 -92.5713 -163.725 24.1773 93.314 -56.4813 -1.69665 -5.20286 75.6403 7.38378 -1.61802 30.0171 -0.551939 2.66895 168.372 14.9643 83.1401 -39.7308 -19.3898 1.04794 75.0424 -9.80658 -0.581107 31.608 -2.15488 4.17123 -0.132895 8.38042 -91.167 10.0996 -0.796444 -2.2502 -1.57294 -0.894676 -2.21299 -24.0926 -0.0835609 -2.38545 -4.07991 -0.0835643 -2.38545 93.3216 -24.3125 -101.896 38.6269 -8.02812 -6.12172 -19.0576 -9.84957 -38.0652 -9.42129 -0.0723302 -4.50768 -89.4136 -49.4649 79.4948 -23.6541 22.4701 -9.46985 17.8085 7.00886 -28.9674 3.32219 0.149539 0.453967 11.1153 13.1795 1.92857 -12.5169 11.9189 6.89477 
-260.627 92.8348 -248.057 -92.6055 -55.4651 -93.3087 -162.167 28.4426 96.5322 -61.093 -3.394 -4.79429 77.5303 8.02731 -2.63179 29.4582 0.297341 -0.12114 167.777 19.2508 80.8209 -46.2042 -22.0561 0.327622 77.0322 -11.6209 -1.57094 31.2066 -2.27212 5.48521 -0.268504 8.53548 -91.1502 9.7876 -1.05617 -2.19735 -1.88469 -1.15182 -2.14877 -24.4056 -0.347156 -2.41305 -4.39293 -0.34716 -2.41305 93.3937 -24.2836 -101.747 37.8691 -5.73666 -5.68922 -18.8369 -7.38224 -41.4356 -10.7734 -0.0845069 -4.50925 -89.6361 -47.9819 78.8432 -24.567 20.3511 -9.38016 19.8898 11.1037 -28.018 6.183 0.368006 1.78799 11.3226 14.1353 2.51507 -12.1864 12.6021 8.61448 
-258.8 90.9256 -246.512 -91.6971 -52.9009 -94.2198 -161.285 31.4027 100.715 -61.9873 -1.90324 -4.57562 75.6514 7.80846 1.36611 31.975 2.90643 -4.44296 167.849 24.0816 77.4204 -52.8289 -25.8166 -1.12985 78.6564 -13.2285 -1.85278 32.2703 -2.6139 5.13328 -0.217018 8.61622 -91.1552 9.62702 -0.954228 -2.21679 -2.04539 -1.05086 -2.17267 -24.5658 -0.244113 -2.40098 -4.55311 -0.244094 -2.40098 94.3002 -23.5077 -99.9854 37.0162 -3.39007 -4.52814 -20.6014 -7.48185 -45.6508 -12.7958 -0.289785 -2.60436 -90.2407 -48.8487 78.1142 -23.3234 18.8719 -9.02576 20.1195 11.9642 -26.8731 7.55212 0.451154 1.83095 11.6748 15.1986 4.17597 -12.9313 13.0843 9.86616 
-256.916 88.5347 -245.24 -87.9744 -50.2308 -92.2945 -160.862 35.7118 106.796 -60.906 -2.66461 -4.58638 73.8544 6.62647 1.54445 29.6622 1.88654 -3.93173 169.936 30.6609 75.3636 -59.4586 -27.096 -2.81213 80.0321 -14.4571 -1.60741 33.8225 -3.12599 4.63453 -0.216517 8.53918 -91.1111 9.7821 -0.934728 -2.12994 -1.89016 -1.02754 -2.08676 -24.4118 -0.251566 -2.31229 -4.3992 -0.251565 -2.3123 93.8496 -24.2779 -100.74 34.6551 -1.96692 -3.16078 -20.7189 -6.31778 -48.1165 -11.7481 -0.235268 -2.95267 -89.7008 -48.4624 78.8478 -22.8238 14.514 -7.40138 20.847 12.0162 -27.1852 8.59387 0.467764 1.44161 12.9546 17.0818 6.02057 -13.4969 14.3597 9.98489 
-254.116 85.9732 -243.963 -83.8 -51.655 -91.2829 -165.085 39.4651 111.273 -55.903 -3.40543 -3.01208 68.98 3.95467 1.63988 28.5654 1.66011 -4.35506 171.363 37.2851 70.5391 -65.1621 -27.2006 -3.88778 81.4009 -15.2414 -1.2615 36.1749 -3.84065 3.34684 -0.692659 8.42319 -90.8661 10.013 -1.77417 -1.57265 -1.65755 -1.84166 -1.49304 -24.1904 -1.2196 -2.03305 -4.1777 -1.2196 -2.03304 92.7011 -26.8107 -102.386 30.1793 -1.28863 -1.56321 -18.704 -3.66478 -48.8517 -9.42378 -0.0788354 -4.42346 -87.7374 -47.0204 81.5748 -21.9608 6.2402 -4.39713 23.487 11.8578 -32.108 8.13747 0.356528 0.487778 17.1533 19.1161 5.89448 -15.03 15.9839 9.85026 
-251.342 84.1001 -241.59 -80.6222 -50.9172 -89.8854 -168.625 40.5653 117.858 -48.8785 -0.598301 -1.4102 64.7323 2.07604 2.78947 28.6535 1.27164 -3.29388 174.226 40.9579 66.5066 -67.6653 -27.4189 -5.4725 81.661 -15.4602 -1.12547 38.5563 -4.64147 2.19566 -0.618998 8.32332 -90.7465 10.2164 -1.57423 -1.34844 -1.45418 -1.63203 -1.27785 -23.988 -1.09626 -1.75915 -3.97532 -1.09625 -1.75915 92.945 -25.243 -102.405 28.5028 -1.31123 3.64865 -17.0089 -1.16672 -50.6771 -6.03612 0.0603858 -6.99421 -86.0807 -45.1491 83.8572 -18.9108 -3.42295 2.94441 27.1227 8.48144 -48.0382 1.82537 0.0675102 0.00994802 20.2274 20.0528 7.59511 -15.2616 16.189 9.30287 
-248.181 83.0936 -238.527 -78.6382 -52.1103 -88.8665 -172.545 41.4497 124.021 -42.752 7.44664 0.534383 61.4738 0.77937 4.00779 24.1676 -0.038953 -4.11951 176.231 41.0037 62.8159 -66.741 -25.8038 -7.05302 81.2237 -15.0496 -0.606485 40.4731 -5.18789 0.208423 -0.323844 8.13075 -90.7203 10.604 -0.97618 -1.34255 -1.06723 -1.03431 -1.2983 -23.5977 -0.527625 -1.57381 -3.58503 -0.527612 -1.57381 94.1868 -21.1861 -100.989 28.7456 -5.25829 14.476 -15.5601 2.53941 -56.4896 -0.261962 -0.0641652 -10.6008 -85.083 -41.4676 84.8739 -11.4007 -5.6155 9.23814 25.8694 1.6463 -65.7291 2.51996 0.173415 1.99734 20.2353 18.8671 9.73423 -14.7629 14.4583 8.79984 
